<svg width="23" height="22" viewBox="0 0 23 22" fill="none" xmlns="http://www.w3.org/2000/svg">
<path d="M4.9375 15.6534L2.5243e-05 20.4271L1.23439 21.6205L6.17187 16.8469L4.9375 15.6534Z" fill="white"/>
<path fill-rule="evenodd" clip-rule="evenodd" d="M12.0969 18C7.53041 18 3.99692 14.3229 3.99692 10C3.99692 5.67715 7.53041 2 12.0969 2C16.6634 2 20.1969 5.67715 20.1969 10C20.1969 14.3229 16.6634 18 12.0969 18ZM12.0969 20C6.57408 20 2.09692 15.5228 2.09692 10C2.09692 4.47715 6.57408 0 12.0969 0C17.6198 0 22.0969 4.47715 22.0969 10C22.0969 15.5228 17.6198 20 12.0969 20Z" fill="white"/>
</svg>
